<svg id="visual" viewBox="0 0 960 540" width="960" height="540" xmlns="http://www.w3.org/2000/svg" xmlns:xlink="http://www.w3.org/1999/xlink" version="1.1"><path d="M0 107L11.5 106C23 105 46 103 68.8 99.2C91.7 95.3 114.3 89.7 137.2 85.2C160 80.7 183 77.3 205.8 79.3C228.7 81.3 251.3 88.7 274.2 91.3C297 94 320 92 342.8 93.5C365.7 95 388.3 100 411.2 103C434 106 457 107 480 104.2C503 101.3 526 94.7 548.8 89.5C571.7 84.3 594.3 80.7 617.2 81C640 81.3 663 85.7 685.8 90.3C708.7 95 731.3 100 754.2 102.5C777 105 800 105 822.8 101.5C845.7 98 868.3 91 891.2 89.3C914 87.7 937 91.3 948.5 93.2L960 95L960 0L948.5 0C937 0 914 0 891.2 0C868.3 0 845.7 0 822.8 0C800 0 777 0 754.2 0C731.3 0 708.7 0 685.8 0C663 0 640 0 617.2 0C594.3 0 571.7 0 548.8 0C526 0 503 0 480 0C457 0 434 0 411.2 0C388.3 0 365.7 0 342.8 0C320 0 297 0 274.2 0C251.3 0 228.7 0 205.8 0C183 0 160 0 137.2 0C114.3 0 91.7 0 68.8 0C46 0 23 0 11.5 0L0 0Z" fill="#cccccc"></path><path d="M0 74L11.5 72C23 70 46 66 68.8 63.5C91.7 61 114.3 60 137.2 59.7C160 59.3 183 59.7 205.8 60.2C228.7 60.7 251.3 61.3 274.2 60.7C297 60 320 58 342.8 61.2C365.7 64.3 388.3 72.7 411.2 74.7C434 76.7 457 72.3 480 67.8C503 63.3 526 58.7 548.8 57.7C571.7 56.7 594.3 59.3 617.2 62.5C640 65.7 663 69.3 685.8 69.2C708.7 69 731.3 65 754.2 64.3C777 63.7 800 66.3 822.8 65.7C845.7 65 868.3 61 891.2 60.7C914 60.3 937 63.7 948.5 65.3L960 67L960 0L948.5 0C937 0 914 0 891.2 0C868.3 0 845.7 0 822.8 0C800 0 777 0 754.2 0C731.3 0 708.7 0 685.8 0C663 0 640 0 617.2 0C594.3 0 571.7 0 548.8 0C526 0 503 0 480 0C457 0 434 0 411.2 0C388.3 0 365.7 0 342.8 0C320 0 297 0 274.2 0C251.3 0 228.7 0 205.8 0C183 0 160 0 137.2 0C114.3 0 91.7 0 68.8 0C46 0 23 0 11.5 0L0 0Z" fill="#838383"></path><path d="M0 54L11.5 53.8C23 53.7 46 53.3 68.8 51.5C91.7 49.7 114.3 46.3 137.2 47.2C160 48 183 53 205.8 54C228.7 55 251.3 52 274.2 50C297 48 320 47 342.8 47.7C365.7 48.3 388.3 50.7 411.2 49.3C434 48 457 43 480 44.7C503 46.3 526 54.7 548.8 57.5C571.7 60.3 594.3 57.7 617.2 57.2C640 56.7 663 58.3 685.8 55.8C708.7 53.3 731.3 46.7 754.2 44C777 41.3 800 42.7 822.8 43.8C845.7 45 868.3 46 891.2 45.3C914 44.7 937 42.3 948.5 41.2L960 40L960 0L948.5 0C937 0 914 0 891.2 0C868.3 0 845.7 0 822.8 0C800 0 777 0 754.2 0C731.3 0 708.7 0 685.8 0C663 0 640 0 617.2 0C594.3 0 571.7 0 548.8 0C526 0 503 0 480 0C457 0 434 0 411.2 0C388.3 0 365.7 0 342.8 0C320 0 297 0 274.2 0C251.3 0 228.7 0 205.8 0C183 0 160 0 137.2 0C114.3 0 91.7 0 68.8 0C46 0 23 0 11.5 0L0 0Z" fill="#414141"></path><path d="M0 41L11.5 39C23 37 46 33 68.8 32.8C91.7 32.7 114.3 36.3 137.2 35.8C160 35.3 183 30.7 205.8 28.3C228.7 26 251.3 26 274.2 27.7C297 29.3 320 32.7 342.8 34.5C365.7 36.3 388.3 36.7 411.2 37C434 37.3 457 37.7 480 35.7C503 33.7 526 29.3 548.8 27.7C571.7 26 594.3 27 617.2 28.7C640 30.3 663 32.7 685.8 32.7C708.7 32.7 731.3 30.3 754.2 30.7C777 31 800 34 822.8 33C845.7 32 868.3 27 891.2 24.5C914 22 937 22 948.5 22L960 22L960 0L948.5 0C937 0 914 0 891.2 0C868.3 0 845.7 0 822.8 0C800 0 777 0 754.2 0C731.3 0 708.7 0 685.8 0C663 0 640 0 617.2 0C594.3 0 571.7 0 548.8 0C526 0 503 0 480 0C457 0 434 0 411.2 0C388.3 0 365.7 0 342.8 0C320 0 297 0 274.2 0C251.3 0 228.7 0 205.8 0C183 0 160 0 137.2 0C114.3 0 91.7 0 68.8 0C46 0 23 0 11.5 0L0 0Z" fill="#000000"></path></svg>