<?xml version="1.0" encoding="utf-8"?>
<!-- Generator: Adobe Illustrator 27.1.0, SVG Export Plug-In . SVG Version: 6.00 Build 0)  -->
<svg version="1.1" id="Layer_1" xmlns="http://www.w3.org/2000/svg" xmlns:xlink="http://www.w3.org/1999/xlink" x="0px" y="0px"
	 viewBox="0 0 999.3 994" style="enable-background:new 0 0 999.3 994;" xml:space="preserve">
<g>
	<g>
		<path fill="#ffffff" d="M49.3,994c-38.6-8.2-45.6-71.2-48.2-102.3c-3.8-46,3.1-90.5,6.8-136.1c3.6-45.8,11.5-87.2,26-131
			c6.9-21,15-41.1,24.7-60.9c4.7-9.6,12.1-19.4,12.9-30.3c0.9-11-2.9-23.5-3.9-34.5c-8.1-91.7-17-184-20.7-276
			c-0.9-22.6-2.2-45.1-2.8-67.7c-0.3-12.1-0.1-24.1,0.7-36.2c0.6-8.7-1.5-24.4,5.7-31c17.7-16,8.7,32.5,8.5,38.2
			c-1.1,24.2,0.8,48.2,2.5,72.3c3.5,50.4,6.9,100.8,13,151c3.2,25.9,5.8,51.9,8,78c2.2,25.6,2.2,53.5,7.9,78.5
			c10.6-11.7,27.9-35.7,31.3-51.5c3.6-17.1-9.3-42.6,6.7-57.1c5.3-4.8,12-5,17.1,0.2c7.7,7.8,4.2,20,1.1,28.7
			c-3.5,9.9-11.2,18.7-10.5,29.3c0.6,8,5.4,17.7,12,22.1c15.1-25.7,4.2-65.8,38.4-79.3c17.1-6.8,18.6,7.5,20.5,20.9
			c1.1,7.9,2.8,15.7,4.6,23.5c0.9,4,6.8,17.7,4.2,21.7c-28.4,7.5-14.9-46.8-27-56c-25.8,4.4-15.5,40.3-19.4,56.3
			c-2.7,11.2-9,24.4-21.8,25.8c-17,1.8-13.5-13.4-22.4-22.2c-10,16.6-30.6,39.9-32.5,59.3c-1,10.6,3.3,23.4,4.9,33.9
			c2,13,3.7,26,5.7,39c7.8,50.1,18,99.9,24.3,150.2c8.7,69.3,34,228.3-68.4,243.3C56,994,52.6,994,49.3,994z M73.5,559
			c-5.3,11.2-10.6,21.7-15.1,32.5c-24.7,59.2-25,122.7-33.1,185.3c-7.2,56.3-8.7,116.2,12,170c9.6,24.9,28,35.1,47.8,12.8
			c16-18.1,22.5-45.9,25.5-69.1c7.2-54.9-1.3-113.5-9.5-167.9c-4.1-27.6-9.8-54.9-14.5-82.5c-2.3-13.7-4.7-27.4-6.8-41.2
			C78,587.6,79.4,569.2,73.5,559z M132.4,434.5c5.1-10,7.9-25.7,3.8-30.7C131.2,413,131.9,422.9,132.4,434.5z"/>
		<path fill="#ffffff" d="M711.8,0c4.1,5.8-6.4,9.9-9.8,13.8c-4.4,5.2-7.6,12.1-10.7,18.1c-7.2,14.6-10.9,30-14.1,45.9
			c-7.6,37.5-7.4,78.6-2.9,116.5c9.2,77.5,23.1,154.3,32.6,231.7c6.9-9.6,14.7-19,20.4-29.4c3.5-6.4,7.7-22.4,16.9-22.1
			c8.5,0.3,6.7,7.2,8.3,12.5c1.4,4.8,4.3,8.7,5.2,14c1.2,7.1,0.2,14,4.1,20.5c-5.4-0.4-3.5-6.5-7.7-7.2c-5.9,8.1,3.1,29.5-13.2,31.1
			c-13.8,1.3-13-19.9-15.2-29c-6.4,6.6-16.4,17.2-17.9,26.4c-1.4,8.9,3.5,21.6,4.8,30.5c3.4,23.2,6,46.5,9.6,69.6
			c7.4,47.7,11.7,95.4,11.3,143.7c-0.2,22.1-0.7,44.2-1.8,66.3c-1.1,22.3,0.2,49.6-9.5,70.2c-20.7,43.8-64.3,4.8-81.6-19.6
			c-53.8-76-36-179.6-2.7-260c8.4-20.2,18.6-39.6,29.5-58.5c5.2-9,10.6-17.8,16.3-26.4c8.3-12.5,8.5-16.2,6.2-30.5
			c-7.8-49-13.2-98.4-21.2-147.4c-8.3-50.9-15.2-102.7-14.2-154.4c0.5-24.8,3.4-49.8,11.5-73.4c3.7-10.7,8.1-21.3,14.4-30.6
			C688.7,10.4,696.5,6.7,708,0C709.3,0,710.6,0,711.8,0z M694.3,459c-3,4.9-5.2,8.4-7.4,11.9c-36,54.7-61,121.7-67.9,186.9
			c-6.1,57.3,9.6,128.6,58.4,164.8c9.6,7.1,19.5,14,28.6,3.4c9.6-11.1,9.9-33,11.2-46.8c3.4-35.1,2.2-71.1,1.8-106.3
			C718.1,600.5,705.5,530.2,694.3,459z M744.6,395c-5.8,11.2-8.3,22.8-2.4,35.1C743,418.4,743.8,406.7,744.6,395z"/>
		<path fill="#ffffff" d="M999.3,408.9c-7.5,2.7-16.3-2.8-23.9-3.3c-7.7-0.5-14.1,1-20.8,4.7c-5.1,2.8-12.8,10.8-19.4,9.5c-7.6-1.4-5.8-9-14.4-7.3
			c-4.8,1-14.1,6.5-18.9,8.5c-6.8,2.7-7.4,6.6-13.3,10.9c-21,15.3-16.3-17.3-16.8-26.9c-7.6,15.3-11.8,38.6-23.4,51
			c-14.7,15.8-28.7,0.2-39.1-11.3c-2.8,9.8-1.3,20.1-7.2,28.3c-8.2-1.3-1.7-28.4-1.7-33.9c0.2-15.8-8.4-29.3-14.1-43.6
			c-11.2-28.1-17.6-58.6-22.2-88.4c-3.1-20-14.6-79.5,14.3-87.2c27.2-7.3,21.5,60.8,22,75.1c1.3,33.2,5.1,66.1,7.3,99.2
			c1.1,17.1-0.7,30.3,9.6,44.5c6.6,9.1,14.6,21.8,24.3,10.5c7.6-8.8,10-24.7,14.8-35.3c5.9-13,13.6-25.2,23.2-35.8
			c3.9-4.3,24.7-27.6,31-18.9c3.1,4.3-19.7,29.3-22.7,34.7c7.6,4,11,10.5,10.4,19.2c17.9,0.7,25.4-28,39.7-3.1
			c10.2-6.9,21-16.6,33.9-17.2c12.2-0.5,17.9,6.2,27.2,12.5C999.3,406.4,999.3,407.6,999.3,408.9z M799.6,398.9
			c1.4-16.8-13.9-161.3-17.6-167.3c-8.4,6.1-6.4,28.1-6.2,37.3c0.4,14.6,2,29.3,4,43.8C784,342,791.8,370.4,799.6,398.9z
			 M881.1,413.7c-1.4,4-2,7.8,1,11.4C887.9,421,887.8,419.5,881.1,413.7z"/>
		<path fill="#ffffff" d="M400.4,425.5c-6.9,8.7-4.9,27.2-17.4,30.9c-12.8,3.8-15.1-13.2-17.8-22.7c-3.2-11.3-5.1-26.1-15.7-12.2
			c-8.6,11.2-4.7,22-8.6,33.5c-6,17.2-11.6-4.8-13.8-11.2c-2.6-7.8-8.6-25.4-20-20.5c-12.5,5.3-8.3,24.8-12.3,34.3
			c-6.5,15.5-12.1,1.3-15.7-7.7c-6.7,11.1-13.9,29.9-31.3,26.4c-6-1.2-6.8-5.4-10.9-8.8c-1.7-1.4-7.9-4.3-8.6-5.4
			c-1.2-2.2,1-12.5,0-16.5c-2.1-8.5-4.1-16.5-3.1-25.4c1.2-10.5,14-30.8,26.9-21.8c13.3,9.3,0.7,32.7-4.1,43
			c-6,12.9,1.9,33.5,15.3,16.4c11.2-14.3,4.5-27.2,7-42.8c1.2-7.4,5.1-10.8,11.4-5.8c5.2,4.1,5.9,19.9,7.5,26.3
			c12-21.3,29.6-30.2,44.5-5c5.7-8.9,15.4-28.7,29.4-23.6c13.2,4.8,10.4,27.5,18,37.2c6-13.6,10.7-24.7,13-39.4
			c3-18.9,11.4-4.6,15.3,5.4c3.5,9,11,34.5,23.7,28.5c10.9-5.2,13.8-23.9,18.6-33.3c4.7-9.3,12.9-16.7,23.4-19
			c16.5-3.7,10.5,6.5,9.3,16.1c-0.9,7,0.7,20.6,8.9,22.8c8,2.1,27.6-13,33-18.1c-8.3,15.8-33.3,44.7-50.8,21.5
			c-12.3,13.8-17.8,14.1-26.8,6.2c-9.6,9.2-21.9,23.9-35,10.6C408.1,439.9,404.2,433.1,400.4,425.5z M240.2,437.8
			c5-9.8,11.6-17.8,9.9-28.8c-1.6-10.7-8-2-10.1,2.6C236.6,419.3,237.3,430,240.2,437.8z M462.7,425.8c5.8-4.8,7.2-8.1,6.9-15.5
			C464.4,414.1,461.7,418.6,462.7,425.8z"/>
		<path fill="#ffffff" d="M574,450.2c-0.9-29.8-36.5-45.9-37.4-76.1c-0.2-6.4,12.5-27.5,17.8-12.7c1.1,3-5,8.2-5.4,12.1c-0.7,6.1,3.7,13.7,6.6,18.7
			c12,20.4,39.4,41.9,33.8,68.4c-3.2,15.1-16,26.1-28.4,33.9c-2.5,1.6-13.7,9.8-16.4,9c-4.1-1-4.7-2.2-0.5-5.5
			C560.3,485.2,570.2,468.5,574,450.2z"/>
		<path fill="#ffffff" d="M420.7,314.7c-11.8,7.6-19.5,3.7-32,3.4c-10.5-0.3-22.7,2.3-33.3,3.6c-12.3,1.5-24.6,2.9-37,4c-5.5,0.5-26,6.9-29.5,2.4
			c-9.6-12,41.5-12.2,46.9-12.6c24.8-1.8,51-6.2,75.8-5.8C415.3,309.7,418.6,310.4,420.7,314.7z"/>
	</g>
</g>
</svg>
